<svg version="1.1" id="Layer_1" xmlns="http://www.w3.org/2000/svg" xmlns:xlink="http://www.w3.org/1999/xlink" x="0px" y="0px"
	 width="100%" viewBox="0 0 534 130" enable-background="new 0 0 534 130" xml:space="preserve">
<path fill="#FDFDFE" opacity="1.000000" stroke="none" 
	d="
M355.000000,131.000000 
	C236.666687,131.000000 118.833374,131.000000 1.000047,131.000000 
	C1.000032,87.666695 1.000032,44.333389 1.000016,1.000065 
	C178.999939,1.000043 356.999878,1.000043 534.999878,1.000022 
	C534.999878,44.333267 534.999878,87.666534 534.999939,130.999908 
	C475.166656,131.000000 415.333344,131.000000 355.000000,131.000000 
M39.499702,14.997687 
	C31.094294,14.997687 22.688885,14.997687 14.378530,14.997687 
	C14.378530,50.372410 14.378530,84.953072 14.378530,119.687408 
	C22.134148,119.687408 29.662788,119.687408 37.667549,119.687408 
	C37.667549,106.333031 37.667549,93.286446 37.667549,80.516891 
	C46.632298,78.217255 52.136486,82.178116 56.300201,89.107574 
	C61.871696,98.379929 67.538284,107.595642 73.236130,116.791000 
	C73.975243,117.983795 75.117722,119.792511 76.117142,119.821800 
	C84.460449,120.066307 92.814026,119.960663 101.601326,119.960663 
	C84.410591,89.767082 76.684013,79.415985 66.553253,73.062843 
	C68.663521,72.110336 70.605537,71.291664 72.497574,70.370361 
	C84.825012,64.367676 90.849213,53.165310 89.261330,39.250378 
	C87.866791,27.029718 80.920883,19.438490 66.788315,16.848522 
	C58.200699,15.274734 49.273853,15.551970 39.499702,14.997687 
M409.004913,114.567200 
	C420.820709,122.453407 433.861572,123.128876 447.356476,121.051285 
	C463.019928,118.639824 473.462524,110.040764 477.864471,94.699966 
	C479.093353,90.417397 480.031311,85.889313 480.089874,81.460464 
	C480.373993,59.976562 480.317596,38.488117 480.354401,17.001230 
	C480.355408,16.411020 480.046600,15.820279 479.895294,15.276690 
	C472.186249,15.276690 464.763062,15.276690 456.902161,15.276690 
	C456.902161,17.336660 456.902191,19.128357 456.902191,20.920053 
	C456.902191,39.411793 456.997650,57.904408 456.828247,76.394592 
	C456.790588,80.507339 456.278931,84.738457 455.184845,88.693619 
	C452.794037,97.336731 446.604462,101.618294 437.346161,101.734238 
	C428.624908,101.843460 421.844666,97.546509 419.338318,89.483124 
	C418.025726,85.260201 417.362885,80.678345 417.310791,76.247971 
	C417.093475,57.758789 417.219269,39.265568 417.219269,20.773829 
	C417.219269,18.997137 417.219269,17.220444 417.219269,15.300376 
	C409.097809,15.300376 401.525177,15.300376 394.185150,15.300376 
	C394.185150,39.222378 393.669403,62.862106 394.415680,86.461922 
	C394.758301,97.295937 399.270844,107.179268 409.004913,114.567200 
M242.543488,55.072605 
	C242.081558,53.904381 241.225449,52.738750 241.217728,51.567532 
	C241.124893,37.483994 241.157684,23.399620 241.157684,9.368656 
	C233.274994,9.368656 225.909775,9.368656 218.672241,9.368656 
	C218.672241,46.430676 218.672241,83.118027 218.672241,119.800194 
	C226.312714,119.800194 233.598038,119.800194 241.445038,119.800194 
	C241.445038,117.134842 241.445038,114.674339 241.445038,113.226440 
	C246.157211,115.843193 250.561447,119.496872 255.586014,120.854141 
	C271.063751,125.035088 285.440094,117.438904 291.964325,102.092766 
	C297.241180,89.680779 297.490509,76.758507 293.746063,63.944042 
	C290.526825,52.926899 283.560516,45.429058 271.626434,43.577358 
	C259.989594,41.771786 250.268616,44.910328 242.543488,55.072605 
M370.544983,54.003380 
	C359.483276,40.074959 333.203857,39.036602 319.286041,52.643276 
	C305.647797,65.976601 304.591644,82.264130 309.509583,99.404160 
	C312.282654,109.068810 318.996460,115.748100 328.567963,119.110382 
	C342.205963,123.901131 355.739746,122.557922 369.067749,117.722000 
	C370.194489,117.313187 371.647400,115.858917 371.714691,114.811096 
	C372.006348,110.269257 371.839661,105.697990 371.839661,100.523209 
	C362.196014,105.043655 352.926300,106.975243 343.092316,105.001633 
	C334.784607,103.334320 330.023560,97.712158 330.027039,88.888565 
	C346.081726,88.888565 362.143250,88.888565 378.353546,88.888565 
	C378.788330,76.479744 378.772705,64.696251 370.544983,54.003380 
M194.220428,79.166275 
	C187.464066,76.419739 180.566833,73.959740 174.038284,70.749832 
	C172.111832,69.802643 169.993851,66.596809 170.210953,64.680679 
	C170.429367,62.753155 173.226471,60.779755 175.312363,59.519566 
	C176.726273,58.665348 178.918243,58.629753 180.667267,58.883297 
	C187.131027,59.820297 193.555298,61.029716 200.006149,62.138756 
	C200.006149,57.324173 200.006149,51.855770 200.006149,46.150085 
	C186.840851,42.326206 173.801208,41.238670 160.976028,46.886459 
	C152.488297,50.624187 147.703476,57.153332 147.495148,66.712769 
	C147.290405,76.108688 151.594620,82.699669 160.011368,86.468971 
	C165.298691,88.836815 170.881622,90.535851 176.243637,92.748878 
	C179.608551,94.137657 183.573105,95.571655 182.674103,100.340652 
	C181.843674,104.745926 177.924301,105.434036 174.223373,105.968674 
	C172.911209,106.158234 171.508652,106.398254 170.245346,106.138557 
	C162.751846,104.598068 155.287125,102.917603 147.513519,101.218803 
	C147.513519,105.461868 147.405060,110.732979 147.610489,115.991837 
	C147.648834,116.973686 148.772781,118.507889 149.688370,118.771774 
	C164.112000,122.928665 178.497986,123.893692 192.482986,117.130280 
	C208.167358,109.545013 208.796631,86.868149 194.220428,79.166275 
M526.997986,89.500000 
	C526.997986,64.773079 526.997986,40.046162 526.997986,15.318810 
	C518.756226,15.318810 511.194427,15.318810 503.574097,15.318810 
	C503.574097,50.327702 503.574097,85.013039 503.574097,119.685356 
	C511.495300,119.685356 519.068665,119.685356 526.997986,119.685356 
	C526.997986,109.747650 526.997986,100.123825 526.997986,89.500000 
M109.842529,114.425735 
	C109.842529,116.189659 109.842529,117.953575 109.842529,119.809120 
	C117.651749,119.809120 124.913391,119.809120 132.427246,119.809120 
	C132.427246,94.892021 132.427246,70.170311 132.427246,45.279705 
	C124.832436,45.279705 117.447037,45.279705 109.842529,45.279705 
	C109.842529,68.190224 109.842529,90.816902 109.842529,114.425735 
M125.541092,9.649145 
	C119.916779,8.067757 114.895844,9.247694 110.961700,13.523731 
	C107.878784,16.874582 107.575607,21.045132 109.138374,25.236052 
	C111.033264,30.317657 117.025139,33.579838 122.960312,32.948650 
	C129.349243,32.269207 133.758713,28.263567 134.526352,22.441841 
	C135.293350,16.624859 132.657257,12.584899 125.541092,9.649145 
z"/>
<path fill="#050B1A" opacity="1.000000" stroke="none" 
	d="
M39.999550,14.997687 
	C49.273853,15.551970 58.200699,15.274734 66.788315,16.848522 
	C80.920883,19.438490 87.866791,27.029718 89.261330,39.250378 
	C90.849213,53.165310 84.825012,64.367676 72.497574,70.370361 
	C70.605537,71.291664 68.663521,72.110336 66.553253,73.062843 
	C76.684013,79.415985 84.410591,89.767082 101.601326,119.960663 
	C92.814026,119.960663 84.460449,120.066307 76.117142,119.821800 
	C75.117722,119.792511 73.975243,117.983795 73.236130,116.791000 
	C67.538284,107.595642 61.871696,98.379929 56.300201,89.107574 
	C52.136486,82.178116 46.632298,78.217255 37.667549,80.516891 
	C37.667549,93.286446 37.667549,106.333031 37.667549,119.687408 
	C29.662788,119.687408 22.134148,119.687408 14.378530,119.687408 
	C14.378530,84.953072 14.378530,50.372410 14.378530,14.997687 
	C22.688885,14.997687 31.094294,14.997687 39.999550,14.997687 
M37.460964,58.222382 
	C37.038479,61.089703 37.864155,62.573498 41.168015,62.256409 
	C44.635098,61.923656 48.173325,62.289135 51.630108,61.901001 
	C59.210102,61.049896 64.827942,54.609486 65.029015,46.909409 
	C65.219460,39.616642 61.471226,34.166046 54.572758,33.298256 
	C49.073692,32.606499 43.418144,33.158703 37.460934,33.158703 
	C37.460934,41.352947 37.460934,49.314087 37.460964,58.222382 
z"/>
<path fill="#2664EB" opacity="1.000000" stroke="none" 
	d="
M408.720978,114.343872 
	C399.270844,107.179268 394.758301,97.295937 394.415680,86.461922 
	C393.669403,62.862106 394.185150,39.222378 394.185150,15.300376 
	C401.525177,15.300376 409.097809,15.300376 417.219269,15.300376 
	C417.219269,17.220444 417.219269,18.997137 417.219269,20.773829 
	C417.219269,39.265568 417.093475,57.758789 417.310791,76.247971 
	C417.362885,80.678345 418.025726,85.260201 419.338318,89.483124 
	C421.844666,97.546509 428.624908,101.843460 437.346161,101.734238 
	C446.604462,101.618294 452.794037,97.336731 455.184845,88.693619 
	C456.278931,84.738457 456.790588,80.507339 456.828247,76.394592 
	C456.997650,57.904408 456.902191,39.411793 456.902191,20.920053 
	C456.902191,19.128357 456.902161,17.336660 456.902161,15.276690 
	C464.763062,15.276690 472.186249,15.276690 479.895294,15.276690 
	C480.046600,15.820279 480.355408,16.411020 480.354401,17.001230 
	C480.317596,38.488117 480.373993,59.976562 480.089874,81.460464 
	C480.031311,85.889313 479.093353,90.417397 477.864471,94.699966 
	C473.462524,110.040764 463.019928,118.639824 447.356476,121.051285 
	C433.861572,123.128876 420.820709,122.453407 408.720978,114.343872 
z"/>
<path fill="#070C1B" opacity="1.000000" stroke="none" 
	d="
M242.777191,54.797329 
	C250.268616,44.910328 259.989594,41.771786 271.626434,43.577358 
	C283.560516,45.429058 290.526825,52.926899 293.746063,63.944042 
	C297.490509,76.758507 297.241180,89.680779 291.964325,102.092766 
	C285.440094,117.438904 271.063751,125.035088 255.586014,120.854141 
	C250.561447,119.496872 246.157211,115.843193 241.445038,113.226440 
	C241.445038,114.674339 241.445038,117.134842 241.445038,119.800194 
	C233.598038,119.800194 226.312714,119.800194 218.672241,119.800194 
	C218.672241,83.118027 218.672241,46.430676 218.672241,9.368656 
	C225.909775,9.368656 233.274994,9.368656 241.157684,9.368656 
	C241.157684,23.399620 241.124893,37.483994 241.217728,51.567532 
	C241.225449,52.738750 242.081558,53.904381 242.777191,54.797329 
M241.781601,72.728043 
	C241.556824,78.856873 240.768906,85.030800 241.255142,91.102692 
	C241.815811,98.104324 247.186615,103.296463 253.196930,104.067848 
	C261.276672,105.104836 267.076324,102.084984 270.114044,94.804520 
	C273.297211,87.175499 273.684265,79.234459 271.333984,71.315063 
	C269.190826,64.093605 264.343445,60.797569 256.863220,60.799759 
	C249.086777,60.802036 244.667755,65.182793 241.781601,72.728043 
z"/>
<path fill="#050B1A" opacity="1.000000" stroke="none" 
	d="
M370.766418,54.285370 
	C378.772705,64.696251 378.788330,76.479744 378.353546,88.888565 
	C362.143250,88.888565 346.081726,88.888565 330.027039,88.888565 
	C330.023560,97.712158 334.784607,103.334320 343.092316,105.001633 
	C352.926300,106.975243 362.196014,105.043655 371.839661,100.523209 
	C371.839661,105.697990 372.006348,110.269257 371.714691,114.811096 
	C371.647400,115.858917 370.194489,117.313187 369.067749,117.722000 
	C355.739746,122.557922 342.205963,123.901131 328.567963,119.110382 
	C318.996460,115.748100 312.282654,109.068810 309.509583,99.404160 
	C304.591644,82.264130 305.647797,65.976601 319.286041,52.643276 
	C333.203857,39.036602 359.483276,40.074959 370.766418,54.285370 
M354.503693,63.166382 
	C350.504700,58.215679 345.270905,57.522350 339.668121,59.362301 
	C334.175629,61.166035 330.045624,68.136093 330.033447,74.687576 
	C339.085388,74.687576 348.133820,74.687576 358.047394,74.687576 
	C356.902313,70.719612 355.906433,67.268616 354.503693,63.166382 
z"/>
<path fill="#060C1A" opacity="1.000000" stroke="none" 
	d="
M194.526382,79.369087 
	C208.796631,86.868149 208.167358,109.545013 192.482986,117.130280 
	C178.497986,123.893692 164.112000,122.928665 149.688370,118.771774 
	C148.772781,118.507889 147.648834,116.973686 147.610489,115.991837 
	C147.405060,110.732979 147.513519,105.461868 147.513519,101.218803 
	C155.287125,102.917603 162.751846,104.598068 170.245346,106.138557 
	C171.508652,106.398254 172.911209,106.158234 174.223373,105.968674 
	C177.924301,105.434036 181.843674,104.745926 182.674103,100.340652 
	C183.573105,95.571655 179.608551,94.137657 176.243637,92.748878 
	C170.881622,90.535851 165.298691,88.836815 160.011368,86.468971 
	C151.594620,82.699669 147.290405,76.108688 147.495148,66.712769 
	C147.703476,57.153332 152.488297,50.624187 160.976028,46.886459 
	C173.801208,41.238670 186.840851,42.326206 200.006149,46.150085 
	C200.006149,51.855770 200.006149,57.324173 200.006149,62.138756 
	C193.555298,61.029716 187.131027,59.820297 180.667267,58.883297 
	C178.918243,58.629753 176.726273,58.665348 175.312363,59.519566 
	C173.226471,60.779755 170.429367,62.753155 170.210953,64.680679 
	C169.993851,66.596809 172.111832,69.802643 174.038284,70.749832 
	C180.566833,73.959740 187.464066,76.419739 194.526382,79.369087 
z"/>
<path fill="#2966EB" opacity="1.000000" stroke="none" 
	d="
M526.997986,90.000000 
	C526.997986,100.123825 526.997986,109.747650 526.997986,119.685356 
	C519.068665,119.685356 511.495300,119.685356 503.574097,119.685356 
	C503.574097,85.013039 503.574097,50.327702 503.574097,15.318810 
	C511.194427,15.318810 518.756226,15.318810 526.997986,15.318810 
	C526.997986,40.046162 526.997986,64.773079 526.997986,90.000000 
z"/>
<path fill="#060C1B" opacity="1.000000" stroke="none" 
	d="
M109.842529,113.934654 
	C109.842529,90.816902 109.842529,68.190224 109.842529,45.279705 
	C117.447037,45.279705 124.832436,45.279705 132.427246,45.279705 
	C132.427246,70.170311 132.427246,94.892021 132.427246,119.809120 
	C124.913391,119.809120 117.651749,119.809120 109.842529,119.809120 
	C109.842529,117.953575 109.842529,116.189659 109.842529,113.934654 
z"/>
<path fill="#080E1D" opacity="1.000000" stroke="none" 
	d="
M125.929474,9.755495 
	C132.657257,12.584899 135.293350,16.624859 134.526352,22.441841 
	C133.758713,28.263567 129.349243,32.269207 122.960312,32.948650 
	C117.025139,33.579838 111.033264,30.317657 109.138374,25.236052 
	C107.575607,21.045132 107.878784,16.874582 110.961700,13.523731 
	C114.895844,9.247694 119.916779,8.067757 125.929474,9.755495 
z"/>
<path fill="#F8F8F8" opacity="1.000000" stroke="none" 
	d="
M37.460949,57.748802 
	C37.460934,49.314087 37.460934,41.352947 37.460934,33.158703 
	C43.418144,33.158703 49.073692,32.606499 54.572758,33.298256 
	C61.471226,34.166046 65.219460,39.616642 65.029015,46.909409 
	C64.827942,54.609486 59.210102,61.049896 51.630108,61.901001 
	C48.173325,62.289135 44.635098,61.923656 41.168015,62.256409 
	C37.864155,62.573498 37.038479,61.089703 37.460949,57.748802 
z"/>
<path fill="#FBFBFC" opacity="1.000000" stroke="none" 
	d="
M241.884171,72.332481 
	C244.667755,65.182793 249.086777,60.802036 256.863220,60.799759 
	C264.343445,60.797569 269.190826,64.093605 271.333984,71.315063 
	C273.684265,79.234459 273.297211,87.175499 270.114044,94.804520 
	C267.076324,102.084984 261.276672,105.104836 253.196930,104.067848 
	C247.186615,103.296463 241.815811,98.104324 241.255142,91.102692 
	C240.768906,85.030800 241.556824,78.856873 241.884171,72.332481 
z"/>
<path fill="#F9FAFA" opacity="1.000000" stroke="none" 
	d="
M354.707123,63.492004 
	C355.906433,67.268616 356.902313,70.719612 358.047394,74.687576 
	C348.133820,74.687576 339.085388,74.687576 330.033447,74.687576 
	C330.045624,68.136093 334.175629,61.166035 339.668121,59.362301 
	C345.270905,57.522350 350.504700,58.215679 354.707123,63.492004 
z"/>
</svg>