<svg version="1.1" id="Layer_1" xmlns="http://www.w3.org/2000/svg" xmlns:xlink="http://www.w3.org/1999/xlink" x="0px" y="0px"
	 width="100%" viewBox="0 0 1892 419" enable-background="new 0 0 1892 419" xml:space="preserve">
<path fill="#FDFDFE" opacity="1.000000" stroke="none" 
	d="
M1375.000000,420.000000 
	C916.666687,420.000000 458.833344,420.000000 1.000000,420.000000 
	C1.000000,280.333344 1.000000,140.666672 1.000000,1.000000 
	C631.666687,1.000000 1262.333374,1.000000 1893.000000,1.000000 
	C1893.000000,140.666672 1893.000000,280.333344 1893.000000,420.000000 
	C1720.500000,420.000000 1548.000000,420.000000 1375.000000,420.000000 
M520.181824,144.418289 
	C532.647217,136.671631 539.380981,116.479904 535.494141,98.807114 
	C523.938477,102.110428 516.579834,111.024597 508.205566,118.856857 
	C485.244751,140.331497 447.581726,145.099304 421.113251,120.999382 
	C415.220123,115.633575 409.360565,110.224472 403.293304,105.061188 
	C401.936462,103.906448 399.771057,103.701813 398.105896,102.422012 
	C397.734314,101.149582 397.762695,99.451103 396.930237,98.669640 
	C386.991943,89.340134 377.703522,79.076172 366.748077,71.117348 
	C332.901428,46.528694 294.639557,40.776787 254.111191,47.786434 
	C224.971069,52.826412 200.363815,65.968971 182.652725,90.344032 
	C180.578461,93.198761 179.379303,96.689339 177.058426,99.702370 
	C173.274658,105.178406 169.382736,110.583389 165.729004,116.144859 
	C157.449036,128.748093 157.343033,142.981873 157.466949,157.872040 
	C158.741974,157.116104 159.602478,156.694092 160.366776,156.139542 
	C171.535660,148.035721 182.496323,139.627640 193.892136,131.857498 
	C216.559860,116.401703 239.297150,116.841446 261.521881,132.968582 
	C268.918732,138.335999 275.868591,144.316208 283.174561,149.814606 
	C284.768799,151.014404 287.011902,151.352051 288.658234,152.597275 
	C288.714996,153.544525 288.385071,154.942719 288.885895,155.372177 
	C298.067383,163.245697 307.315491,171.043091 316.654205,178.729401 
	C317.699738,179.589905 319.378632,179.680923 320.553467,180.718567 
	C321.567566,182.173752 322.314850,183.955109 323.635559,185.035522 
	C345.766052,203.139740 371.658356,211.630020 399.763824,211.652069 
	C417.582397,211.666061 435.523224,209.193466 453.185608,206.414703 
	C467.330170,204.189377 479.949768,197.513550 490.284241,187.235123 
	C491.465912,186.059784 494.778168,184.827759 492.509979,182.648346 
	C493.958771,181.792984 495.883331,181.279175 496.781219,180.028381 
	C504.131775,169.788406 511.321838,159.432312 518.463928,149.044952 
	C519.235596,147.922668 519.391968,146.377319 520.181824,144.418289 
M254.815338,229.421265 
	C253.928146,228.126221 253.300827,226.483383 252.110535,225.593979 
	C245.624710,220.747681 239.011887,216.070526 232.410233,211.380981 
	C231.472641,210.714951 230.388000,210.226089 229.319901,209.777985 
	C198.762100,196.958145 167.305801,190.031387 134.102600,196.237381 
	C116.195015,199.584488 99.245346,205.712143 83.362892,216.274017 
	C81.696205,217.513428 79.747581,218.505798 78.409248,220.032959 
	C70.578445,228.968781 62.890442,238.029709 54.799706,247.632141 
	C40.523029,260.790985 31.501328,276.585663 31.251942,296.406586 
	C31.203314,300.271301 33.092861,304.160431 34.261223,308.711334 
	C36.801815,306.965302 38.172867,306.061768 39.503662,305.102417 
	C53.278996,295.172150 66.913712,285.037842 80.902000,275.417542 
	C84.983795,272.610321 89.911110,270.251404 94.733330,269.500183 
	C100.723297,268.567017 107.012444,269.398834 113.160080,269.710876 
	C115.572845,269.833313 118.029884,270.375732 120.333710,271.132141 
	C131.258896,274.719238 139.778397,282.216034 148.823776,288.862640 
	C151.791367,291.043243 154.920197,293.004456 157.841705,295.792389 
	C158.585770,296.989868 159.080322,298.490936 160.111786,299.338745 
	C173.024643,309.952118 186.015198,320.470917 199.202469,331.654480 
	C207.528641,340.620575 217.952393,346.519958 229.047806,351.085999 
	C260.019226,363.831482 291.856354,363.779999 323.993805,356.460968 
	C348.120483,350.966309 367.731232,338.398956 382.166046,318.150635 
	C383.077484,316.872131 382.886108,314.807465 383.956238,313.118958 
	C385.157440,312.731964 386.737885,312.706757 387.503479,311.904236 
	C400.922699,297.837372 409.660217,281.550507 409.749329,261.673553 
	C409.782562,254.265015 408.008240,247.058945 402.107147,240.427841 
	C397.828644,254.545288 387.711517,262.995880 377.720215,271.630096 
	C353.521851,292.541595 329.727203,293.727325 305.514008,274.617615 
	C298.215118,268.857147 291.683472,262.132568 284.604919,256.078125 
	C283.184570,254.863281 280.877838,254.684814 279.206848,253.365952 
	C279.309937,252.517151 279.815979,251.194366 279.456940,250.889114 
	C271.237518,243.901138 262.923706,237.024139 254.815338,229.421265 
M582.764893,284.499908 
	C582.764893,310.603851 582.764893,336.707794 582.764893,362.923248 
	C602.936157,362.923248 622.021423,362.923248 641.556030,362.923248 
	C641.556030,330.602905 641.556030,298.523682 641.556030,266.276550 
	C655.404419,262.695068 668.072510,263.846771 677.877502,274.447052 
	C683.907959,280.966766 688.734863,288.697632 693.517456,296.254669 
	C706.066345,316.083252 718.272278,336.128601 730.667664,356.054718 
	C733.533813,360.662170 737.307373,363.503693 743.245178,363.491974 
	C762.232544,363.454559 781.220459,363.777496 800.208557,363.922974 
	C800.575378,363.925781 800.945862,363.457550 801.581238,363.029419 
	C794.071838,351.468292 786.706543,339.984009 779.194458,328.596527 
	C766.829346,309.852539 754.955994,290.742096 741.715698,272.634094 
	C734.474121,262.730164 724.853394,254.565765 716.195923,245.502182 
	C717.438721,245.050476 719.290283,244.412827 721.115967,243.708313 
	C736.054199,237.944077 748.833496,229.146179 758.081055,215.956879 
	C771.061646,197.443542 774.076294,176.723648 769.639526,154.948761 
	C765.115295,132.744843 752.781555,116.447662 730.467468,110.019775 
	C720.032593,107.013855 708.896851,105.816383 697.997375,105.168617 
	C669.566772,103.478943 641.095337,102.436188 612.631409,101.369324 
	C602.706299,100.997314 592.755615,101.310013 582.764038,101.310013 
	C582.764038,161.897690 582.764038,222.698776 582.764893,284.499908 
M1586.375366,103.419754 
	C1569.295288,103.419754 1552.215088,103.419754 1535.046387,103.419754 
	C1534.942749,105.177078 1534.832642,106.164459 1534.833740,107.151726 
	C1534.892822,161.133408 1534.615112,215.119385 1535.287598,269.093506 
	C1535.443115,281.579163 1537.876343,294.271240 1540.964722,306.435883 
	C1547.119751,330.679810 1562.317871,348.143341 1585.312988,357.869568 
	C1614.266724,370.116058 1644.532349,373.480408 1675.351562,366.802032 
	C1719.158203,357.309418 1744.021240,326.333527 1748.764282,283.502716 
	C1751.250977,261.047424 1751.435547,238.287369 1751.746338,215.652405 
	C1752.235962,180.000702 1751.955566,144.338440 1752.000610,108.680656 
	C1752.002808,106.931297 1752.000732,105.181931 1752.000732,103.429611 
	C1731.980469,103.429611 1712.724365,103.429611 1692.999268,103.429611 
	C1692.999268,105.654869 1693.000977,107.612801 1692.999023,109.570732 
	C1692.950562,158.391693 1693.036133,207.213516 1692.725952,256.032837 
	C1692.671509,264.621033 1691.701416,273.362091 1689.854858,281.746399 
	C1686.273315,298.006683 1677.599487,310.443695 1660.667725,315.368774 
	C1650.682861,318.273163 1640.595337,317.489594 1630.462891,316.181915 
	C1620.664429,314.917297 1613.105347,309.827881 1606.626953,302.805328 
	C1596.703369,292.048096 1594.237793,278.560913 1594.109375,264.772400 
	C1593.665649,217.124603 1593.710571,169.472229 1593.574707,121.821579 
	C1593.557373,115.735504 1593.572388,109.649338 1593.572388,103.420189 
	C1590.988770,103.420189 1589.160522,103.420189 1586.375366,103.419754 
M1095.999512,352.482666 
	C1095.999512,356.253143 1095.999512,360.023651 1095.999512,363.491241 
	C1114.651733,363.491241 1132.724243,363.491241 1150.880005,363.491241 
	C1151.861450,357.488739 1152.764771,351.963715 1153.649536,346.552887 
	C1159.657837,351.001312 1165.058960,355.751862 1171.132690,359.375183 
	C1210.325439,382.755463 1261.793823,362.585327 1279.015747,319.829285 
	C1292.417847,286.556580 1293.159058,253.111481 1281.859375,219.310577 
	C1274.475952,197.224579 1260.359131,181.525238 1237.291626,175.363403 
	C1211.616577,168.505020 1187.726685,171.595688 1167.019775,189.564392 
	C1161.831299,194.066803 1157.020752,199.004776 1151.412354,204.335739 
	C1151.412354,164.957245 1151.412354,126.382805 1151.412354,87.780563 
	C1132.728149,87.780563 1114.478760,87.780563 1095.999512,87.780563 
	C1095.999512,175.873367 1095.999512,263.681122 1095.999512,352.482666 
M1456.500000,286.820557 
	C1469.268799,286.820557 1482.037598,286.820557 1494.963257,286.820557 
	C1496.805786,263.656128 1496.766724,241.273315 1488.036133,219.883118 
	C1481.852661,204.733429 1472.291260,192.212708 1457.961426,183.704834 
	C1435.917847,170.617294 1412.431152,169.218704 1388.070312,174.979675 
	C1356.552856,182.433121 1334.892334,201.353531 1323.374023,231.563644 
	C1315.531372,252.133392 1314.751831,273.463806 1318.273926,294.989532 
	C1325.019409,336.214630 1350.838013,360.879425 1390.900269,367.916229 
	C1416.378174,372.391327 1441.261963,367.319580 1465.992065,361.829712 
	C1471.311279,360.648956 1476.665283,357.583710 1477.441528,351.840881 
	C1478.851318,341.411774 1478.988647,330.810730 1479.701050,319.591187 
	C1476.531982,319.921997 1474.896606,319.991394 1473.299561,320.275818 
	C1462.164185,322.258972 1450.966797,323.967163 1439.924194,326.380585 
	C1426.035522,329.415985 1412.523682,328.553406 1399.111694,324.134766 
	C1383.408691,318.961365 1372.743408,302.199310 1375.641479,286.820557 
	C1402.229492,286.820557 1428.864746,286.820557 1456.500000,286.820557 
M916.373840,338.336914 
	C916.655334,342.323303 916.632996,346.360596 917.290283,350.284027 
	C918.244202,355.977692 920.860168,360.951294 926.828003,362.613403 
	C956.594055,370.903290 986.494629,372.909332 1016.319214,363.065918 
	C1039.278931,355.488220 1055.898560,341.269287 1059.334229,316.191833 
	C1062.526001,292.894470 1056.808960,276.873291 1037.329712,265.162354 
	C1028.304688,259.736542 1018.326477,255.549454 1008.312927,252.196976 
	C993.580322,247.264557 981.388977,239.639679 973.434509,225.638000 
	C977.819092,222.441193 982.015991,218.844971 986.723450,216.135757 
	C989.910217,214.301666 993.870361,212.605347 997.388123,212.780914 
	C1007.489441,213.285080 1017.561157,214.622696 1027.606689,215.924225 
	C1034.752441,216.850052 1041.836792,218.247833 1048.852051,219.418869 
	C1048.852051,208.729233 1049.465088,198.881088 1048.629883,189.157318 
	C1048.098999,182.974731 1044.285156,178.036972 1037.366211,176.783798 
	C1030.824829,175.599030 1024.322876,174.131332 1017.742065,173.242661 
	C992.084534,169.777863 967.277893,171.894485 944.180786,184.879440 
	C924.590759,195.892807 916.183533,212.990738 916.820312,234.968445 
	C917.477722,257.659302 928.989685,272.671875 949.849792,280.853882 
	C957.740845,283.948975 965.655579,286.991882 973.627319,289.870880 
	C986.604431,294.557495 996.213318,303.344696 1004.387207,314.224487 
	C1000.981445,317.435577 998.124817,320.828094 994.599304,323.244598 
	C991.451599,325.402100 987.454407,328.016418 984.023926,327.769135 
	C969.773132,326.741669 955.582520,324.804565 941.394775,323.005066 
	C933.372498,321.987549 925.398621,320.589081 916.369324,319.203583 
	C916.369324,325.828278 916.369324,331.606750 916.373840,338.336914 
M1809.157349,156.499985 
	C1809.157349,225.036179 1809.157349,293.572388 1809.157349,362.037018 
	C1829.231201,362.037018 1848.450317,362.037018 1867.709961,362.037018 
	C1867.709961,275.764984 1867.709961,189.874405 1867.709961,103.860992 
	C1848.172363,103.860992 1828.926392,103.860992 1809.157471,103.860992 
	C1809.157471,121.256783 1809.157471,138.378372 1809.157349,156.499985 
M879.958313,343.499573 
	C879.958313,288.421387 879.958313,233.343185 879.958313,178.104156 
	C860.543945,178.104156 841.697998,178.104156 823.062256,178.104156 
	C823.062256,240.021027 823.062256,301.542236 823.062256,362.838501 
	C842.190674,362.838501 860.909241,362.838501 879.958313,362.838501 
	C879.958313,356.445526 879.958313,350.472412 879.958313,343.499573 
M869.748169,91.668747 
	C858.569275,84.923836 846.908203,84.936783 835.365967,90.118088 
	C819.635925,97.179276 813.973328,115.469109 822.397705,130.494324 
	C829.556885,143.263016 845.747803,149.430298 861.347412,145.533264 
	C872.636841,142.712982 880.854553,136.419617 882.806763,124.630051 
	C884.953186,111.668121 882.906555,99.692162 869.748169,91.668747 
z"/>
<path fill="#090F1D" opacity="1.000000" stroke="none" 
	d="
M582.764465,283.999878 
	C582.764038,222.698776 582.764038,161.897690 582.764038,101.310013 
	C592.755615,101.310013 602.706299,100.997314 612.631409,101.369324 
	C641.095337,102.436188 669.566772,103.478943 697.997375,105.168617 
	C708.896851,105.816383 720.032593,107.013855 730.467468,110.019775 
	C752.781555,116.447662 765.115295,132.744843 769.639526,154.948761 
	C774.076294,176.723648 771.061646,197.443542 758.081055,215.956879 
	C748.833496,229.146179 736.054199,237.944077 721.115967,243.708313 
	C719.290283,244.412827 717.438721,245.050476 716.195923,245.502182 
	C724.853394,254.565765 734.474121,262.730164 741.715698,272.634094 
	C754.955994,290.742096 766.829346,309.852539 779.194458,328.596527 
	C786.706543,339.984009 794.071838,351.468292 801.581238,363.029419 
	C800.945862,363.457550 800.575378,363.925781 800.208557,363.922974 
	C781.220459,363.777496 762.232544,363.454559 743.245178,363.491974 
	C737.307373,363.503693 733.533813,360.662170 730.667664,356.054718 
	C718.272278,336.128601 706.066345,316.083252 693.517456,296.254669 
	C688.734863,288.697632 683.907959,280.966766 677.877502,274.447052 
	C668.072510,263.846771 655.404419,262.695068 641.556030,266.276550 
	C641.556030,298.523682 641.556030,330.602905 641.556030,362.923248 
	C622.021423,362.923248 602.936157,362.923248 582.764893,362.923248 
	C582.764893,336.707794 582.764893,310.603851 582.764465,283.999878 
M680.098755,217.860794 
	C693.516785,215.022995 702.943298,207.646454 706.784607,194.107544 
	C707.685791,190.931183 708.147705,187.623154 708.705383,184.357544 
	C711.669678,166.999466 700.661682,152.254211 687.482178,148.046478 
	C672.063049,143.123703 656.670410,145.917770 641.261108,147.793777 
	C641.261108,171.503204 641.261108,194.731873 641.261108,218.380219 
	C647.631958,218.720551 653.769165,219.366745 659.897095,219.288452 
	C666.352661,219.205994 672.799438,218.431335 680.098755,217.860794 
z"/>
<path fill="#2967EB" opacity="1.000000" stroke="none" 
	d="
M1586.853760,103.419968 
	C1589.160522,103.420189 1590.988770,103.420189 1593.572388,103.420189 
	C1593.572388,109.649338 1593.557373,115.735504 1593.574707,121.821579 
	C1593.710571,169.472229 1593.665649,217.124603 1594.109375,264.772400 
	C1594.237793,278.560913 1596.703369,292.048096 1606.626953,302.805328 
	C1613.105347,309.827881 1620.664429,314.917297 1630.462891,316.181915 
	C1640.595337,317.489594 1650.682861,318.273163 1660.667725,315.368774 
	C1677.599487,310.443695 1686.273315,298.006683 1689.854858,281.746399 
	C1691.701416,273.362091 1692.671509,264.621033 1692.725952,256.032837 
	C1693.036133,207.213516 1692.950562,158.391693 1692.999023,109.570732 
	C1693.000977,107.612801 1692.999268,105.654869 1692.999268,103.429611 
	C1712.724365,103.429611 1731.980469,103.429611 1752.000732,103.429611 
	C1752.000732,105.181931 1752.002808,106.931297 1752.000610,108.680656 
	C1751.955566,144.338440 1752.235962,180.000702 1751.746338,215.652405 
	C1751.435547,238.287369 1751.250977,261.047424 1748.764282,283.502716 
	C1744.021240,326.333527 1719.158203,357.309418 1675.351562,366.802032 
	C1644.532349,373.480408 1614.266724,370.116058 1585.312988,357.869568 
	C1562.317871,348.143341 1547.119751,330.679810 1540.964722,306.435883 
	C1537.876343,294.271240 1535.443115,281.579163 1535.287598,269.093506 
	C1534.615112,215.119385 1534.892822,161.133408 1534.833740,107.151726 
	C1534.832642,106.164459 1534.942749,105.177078 1535.046387,103.419754 
	C1552.215088,103.419754 1569.295288,103.419754 1586.853760,103.419968 
z"/>
<path fill="#070D1C" opacity="1.000000" stroke="none" 
	d="
M1095.999512,351.985779 
	C1095.999512,263.681122 1095.999512,175.873367 1095.999512,87.780563 
	C1114.478760,87.780563 1132.728149,87.780563 1151.412354,87.780563 
	C1151.412354,126.382805 1151.412354,164.957245 1151.412354,204.335739 
	C1157.020752,199.004776 1161.831299,194.066803 1167.019775,189.564392 
	C1187.726685,171.595688 1211.616577,168.505020 1237.291626,175.363403 
	C1260.359131,181.525238 1274.475952,197.224579 1281.859375,219.310577 
	C1293.159058,253.111481 1292.417847,286.556580 1279.015747,319.829285 
	C1261.793823,362.585327 1210.325439,382.755463 1171.132690,359.375183 
	C1165.058960,355.751862 1159.657837,351.001312 1153.649536,346.552887 
	C1152.764771,351.963715 1151.861450,357.488739 1150.880005,363.491241 
	C1132.724243,363.491241 1114.651733,363.491241 1095.999512,363.491241 
	C1095.999512,360.023651 1095.999512,356.253143 1095.999512,351.985779 
M1225.856323,236.887939 
	C1222.015869,226.908966 1214.985352,220.180359 1204.639771,217.652847 
	C1199.402222,216.373276 1193.811401,216.030807 1188.391235,216.101425 
	C1171.756226,216.318130 1155.100464,230.651398 1153.202637,247.171783 
	C1151.765747,259.680054 1151.228394,272.368622 1151.436523,284.958038 
	C1151.548828,291.746307 1153.002563,298.961548 1155.719482,305.166016 
	C1161.749878,318.936737 1181.401001,327.482697 1197.060303,324.564789 
	C1209.353271,322.274231 1219.805786,316.926025 1222.564453,304.073181 
	C1225.681641,289.549561 1227.371216,274.637543 1228.501465,259.804535 
	C1229.055786,252.529144 1226.941650,245.050446 1225.856323,236.887939 
z"/>
<path fill="#0A101E" opacity="1.000000" stroke="none" 
	d="
M1456.000000,286.820557 
	C1428.864746,286.820557 1402.229492,286.820557 1375.641479,286.820557 
	C1372.743408,302.199310 1383.408691,318.961365 1399.111694,324.134766 
	C1412.523682,328.553406 1426.035522,329.415985 1439.924194,326.380585 
	C1450.966797,323.967163 1462.164185,322.258972 1473.299561,320.275818 
	C1474.896606,319.991394 1476.531982,319.921997 1479.701050,319.591187 
	C1478.988647,330.810730 1478.851318,341.411774 1477.441528,351.840881 
	C1476.665283,357.583710 1471.311279,360.648956 1465.992065,361.829712 
	C1441.261963,367.319580 1416.378174,372.391327 1390.900269,367.916229 
	C1350.838013,360.879425 1325.019409,336.214630 1318.273926,294.989532 
	C1314.751831,273.463806 1315.531372,252.133392 1323.374023,231.563644 
	C1334.892334,201.353531 1356.552856,182.433121 1388.070312,174.979675 
	C1412.431152,169.218704 1435.917847,170.617294 1457.961426,183.704834 
	C1472.291260,192.212708 1481.852661,204.733429 1488.036133,219.883118 
	C1496.766724,241.273315 1496.805786,263.656128 1494.963257,286.820557 
	C1482.037598,286.820557 1469.268799,286.820557 1456.000000,286.820557 
M1420.602539,211.672165 
	C1394.511108,204.826004 1375.682251,225.893463 1374.662476,250.471008 
	C1397.359985,250.471008 1420.045166,250.471008 1443.208862,250.471008 
	C1442.776001,246.800674 1442.572021,243.493484 1441.971558,240.259933 
	C1439.613525,227.563721 1433.906372,217.243118 1420.602539,211.672165 
z"/>
<path fill="#0B1120" opacity="1.000000" stroke="none" 
	d="
M916.371582,337.861084 
	C916.369324,331.606750 916.369324,325.828278 916.369324,319.203583 
	C925.398621,320.589081 933.372498,321.987549 941.394775,323.005066 
	C955.582520,324.804565 969.773132,326.741669 984.023926,327.769135 
	C987.454407,328.016418 991.451599,325.402100 994.599304,323.244598 
	C998.124817,320.828094 1000.981445,317.435577 1004.387207,314.224487 
	C996.213318,303.344696 986.604431,294.557495 973.627319,289.870880 
	C965.655579,286.991882 957.740845,283.948975 949.849792,280.853882 
	C928.989685,272.671875 917.477722,257.659302 916.820312,234.968445 
	C916.183533,212.990738 924.590759,195.892807 944.180786,184.879440 
	C967.277893,171.894485 992.084534,169.777863 1017.742065,173.242661 
	C1024.322876,174.131332 1030.824829,175.599030 1037.366211,176.783798 
	C1044.285156,178.036972 1048.098999,182.974731 1048.629883,189.157318 
	C1049.465088,198.881088 1048.852051,208.729233 1048.852051,219.418869 
	C1041.836792,218.247833 1034.752441,216.850052 1027.606689,215.924225 
	C1017.561157,214.622696 1007.489441,213.285080 997.388123,212.780914 
	C993.870361,212.605347 989.910217,214.301666 986.723450,216.135757 
	C982.015991,218.844971 977.819092,222.441193 973.434509,225.638000 
	C981.388977,239.639679 993.580322,247.264557 1008.312927,252.196976 
	C1018.326477,255.549454 1028.304688,259.736542 1037.329712,265.162354 
	C1056.808960,276.873291 1062.526001,292.894470 1059.334229,316.191833 
	C1055.898560,341.269287 1039.278931,355.488220 1016.319214,363.065918 
	C986.494629,372.909332 956.594055,370.903290 926.828003,362.613403 
	C920.860168,360.951294 918.244202,355.977692 917.290283,350.284027 
	C916.632996,346.360596 916.655334,342.323303 916.371582,337.861084 
z"/>
<path fill="#2A67EB" opacity="1.000000" stroke="none" 
	d="
M1809.157471,155.999969 
	C1809.157471,138.378372 1809.157471,121.256783 1809.157471,103.860992 
	C1828.926392,103.860992 1848.172363,103.860992 1867.709961,103.860992 
	C1867.709961,189.874405 1867.709961,275.764984 1867.709961,362.037018 
	C1848.450317,362.037018 1829.231201,362.037018 1809.157349,362.037018 
	C1809.157349,293.572388 1809.157349,225.036179 1809.157471,155.999969 
z"/>
<path fill="#0D1321" opacity="1.000000" stroke="none" 
	d="
M879.958313,343.999420 
	C879.958313,350.472412 879.958313,356.445526 879.958313,362.838501 
	C860.909241,362.838501 842.190674,362.838501 823.062256,362.838501 
	C823.062256,301.542236 823.062256,240.021027 823.062256,178.104156 
	C841.697998,178.104156 860.543945,178.104156 879.958313,178.104156 
	C879.958313,233.343185 879.958313,288.421387 879.958313,343.999420 
z"/>
<path fill="#3879FF" opacity="1.000000" stroke="none" 
	d="
M177.774445,99.885132 
	C179.379303,96.689339 180.578461,93.198761 182.652725,90.344032 
	C200.363815,65.968971 224.971069,52.826412 254.111191,47.786434 
	C294.639557,40.776787 332.901428,46.528694 366.748077,71.117348 
	C377.703522,79.076172 386.991943,89.340134 396.930237,98.669640 
	C397.762695,99.451103 397.734314,101.149582 397.818665,102.995369 
	C394.703918,104.890335 391.876343,106.211937 388.724731,107.617767 
	C385.787903,105.401764 383.087311,103.193237 380.576294,100.786896 
	C359.962891,81.032990 335.666351,68.484680 307.418213,64.206810 
	C287.166077,61.139847 267.105896,63.480057 247.066269,67.272141 
	C236.281494,69.312950 226.258713,73.378853 217.058334,78.565186 
	C208.849640,83.192490 202.290970,90.746826 194.676270,97.112183 
	C191.173401,98.797081 187.998444,100.379288 184.505081,101.796310 
	C182.049255,101.049133 179.911850,100.467133 177.774445,99.885132 
z"/>
<path fill="#C53CFF" opacity="1.000000" stroke="none" 
	d="
M383.207764,313.108521 
	C382.886108,314.807465 383.077484,316.872131 382.166046,318.150635 
	C367.731232,338.398956 348.120483,350.966309 323.993805,356.460968 
	C291.856354,363.779999 260.019226,363.831482 229.047806,351.085999 
	C217.952393,346.519958 207.528641,340.620575 199.098343,330.876282 
	C199.006790,327.030823 199.019363,323.963562 199.298416,320.701874 
	C200.853592,320.455902 202.554001,319.839478 203.371017,320.434998 
	C226.209625,337.082336 251.855164,344.348328 279.947662,344.128723 
	C313.853363,343.863678 344.153259,333.516205 370.858368,312.604431 
	C372.241241,311.521576 373.969238,310.879425 375.847351,310.129425 
	C378.508026,311.187347 380.857880,312.147949 383.207764,313.108521 
z"/>
<path fill="#5068FF" opacity="1.000000" stroke="none" 
	d="
M177.416443,99.793747 
	C179.911850,100.467133 182.049255,101.049133 184.652496,102.116173 
	C188.437225,104.670418 191.756088,106.739624 195.487717,108.928810 
	C200.602997,108.182678 205.317612,107.377083 210.005829,106.439384 
	C225.511154,103.338135 241.407379,101.063812 255.658585,109.342560 
	C266.291870,115.519615 275.724670,123.932610 285.111725,132.023209 
	C290.930054,137.037979 295.663147,143.311829 300.489899,148.997437 
	C296.382996,150.011841 292.669586,151.049301 288.956177,152.086761 
	C287.011902,151.352051 284.768799,151.014404 283.174561,149.814606 
	C275.868591,144.316208 268.918732,138.335999 261.521881,132.968582 
	C239.297150,116.841446 216.559860,116.401703 193.892136,131.857498 
	C182.496323,139.627640 171.535660,148.035721 160.366776,156.139542 
	C159.602478,156.694092 158.741974,157.116104 157.466949,157.872040 
	C157.343033,142.981873 157.449036,128.748093 165.729004,116.144859 
	C169.382736,110.583389 173.274658,105.178406 177.416443,99.793747 
z"/>
<path fill="#A444FF" opacity="1.000000" stroke="none" 
	d="
M383.582001,313.113739 
	C380.857880,312.147949 378.508026,311.187347 375.654877,309.769165 
	C375.567932,307.600830 375.794617,305.814972 376.436981,304.193787 
	C378.195160,299.756714 380.128326,295.389038 382.177551,290.932983 
	C382.317078,290.706757 382.271210,290.541473 382.225342,290.376160 
	C382.156189,290.589661 382.087036,290.803192 381.644104,290.924927 
	C378.984131,291.794861 376.684113,292.725159 374.413879,293.723236 
	C353.106079,303.091064 331.726074,305.148621 310.108337,294.638641 
	C295.278656,287.428925 283.797455,276.225800 273.153778,264.011658 
	C271.589294,262.216370 270.485809,260.019409 269.527954,257.966339 
	C272.917847,256.625763 275.948822,255.327118 278.979797,254.028488 
	C280.877838,254.684814 283.184570,254.863281 284.604919,256.078125 
	C291.683472,262.132568 298.215118,268.857147 305.514008,274.617615 
	C329.727203,293.727325 353.521851,292.541595 377.720215,271.630096 
	C387.711517,262.995880 397.828644,254.545288 402.107147,240.427841 
	C408.008240,247.058945 409.782562,254.265015 409.749329,261.673553 
	C409.660217,281.550507 400.922699,297.837372 387.503479,311.904236 
	C386.737885,312.706757 385.157440,312.731964 383.582001,313.113739 
z"/>
<path fill="#0D1322" opacity="1.000000" stroke="none" 
	d="
M870.064636,91.848755 
	C882.906555,99.692162 884.953186,111.668121 882.806763,124.630051 
	C880.854553,136.419617 872.636841,142.712982 861.347412,145.533264 
	C845.747803,149.430298 829.556885,143.263016 822.397705,130.494324 
	C813.973328,115.469109 819.635925,97.179276 835.365967,90.118088 
	C846.908203,84.936783 858.569275,84.923836 870.064636,91.848755 
z"/>
<path fill="#9B41FF" opacity="1.000000" stroke="none" 
	d="
M157.975311,295.066010 
	C154.920197,293.004456 151.791367,291.043243 148.823776,288.862640 
	C139.778397,282.216034 131.258896,274.719238 120.333710,271.132141 
	C118.029884,270.375732 115.572845,269.833313 113.160080,269.710876 
	C107.012444,269.398834 100.723297,268.567017 94.733330,269.500183 
	C89.911110,270.251404 84.983795,272.610321 80.902000,275.417542 
	C66.913712,285.037842 53.278996,295.172150 39.503662,305.102417 
	C38.172867,306.061768 36.801815,306.965302 34.261223,308.711334 
	C33.092861,304.160431 31.203314,300.271301 31.251942,296.406586 
	C31.501328,276.585663 40.523029,260.790985 55.268105,247.474304 
	C58.190765,248.222702 60.645023,249.128937 63.218781,250.367371 
	C67.203674,252.918427 63.173382,254.860901 63.113281,256.942596 
	C63.063122,258.680023 62.227619,261.132721 63.055309,261.973083 
	C64.119156,263.053192 66.579750,263.347046 68.291748,263.070404 
	C71.370483,262.572968 74.354446,261.444855 77.351959,260.497803 
	C84.132614,258.355499 90.762558,255.003021 97.692665,254.197311 
	C123.808632,251.161011 144.746017,261.444183 161.468048,281.097534 
	C162.488129,282.296448 162.502975,284.350616 162.674255,286.169434 
	C160.900406,289.243317 159.437851,292.154663 157.975311,295.066010 
z"/>
<path fill="#8066FF" opacity="1.000000" stroke="none" 
	d="
M491.443146,182.350128 
	C494.778168,184.827759 491.465912,186.059784 490.284241,187.235123 
	C479.949768,197.513550 467.330170,204.189377 453.185608,206.414703 
	C435.523224,209.193466 417.582397,211.666061 399.763824,211.652069 
	C371.658356,211.630020 345.766052,203.139740 323.635559,185.035522 
	C322.314850,183.955109 321.567566,182.173752 321.013611,180.263672 
	C325.662231,178.532669 329.850708,177.256561 334.422546,175.996002 
	C336.493225,176.604126 338.264709,177.026810 339.855225,177.814804 
	C362.545135,189.055832 386.536407,195.163055 411.855469,194.740509 
	C434.211609,194.367432 455.507568,188.688675 475.908173,179.566925 
	C477.946442,178.655563 480.329559,178.515350 482.882690,178.044724 
	C485.956207,179.498184 488.699677,180.924164 491.443146,182.350128 
z"/>
<path fill="#825AFF" opacity="1.000000" stroke="none" 
	d="
M83.955971,215.902496 
	C99.245346,205.712143 116.195015,199.584488 134.102600,196.237381 
	C167.305801,190.031387 198.762100,196.958145 229.319901,209.777985 
	C230.388000,210.226089 231.472641,210.714951 232.410233,211.380981 
	C239.011887,216.070526 245.624710,220.747681 252.110535,225.593979 
	C253.300827,226.483383 253.928146,228.126221 254.460388,229.925476 
	C251.741928,233.437988 249.378433,236.446274 246.694397,239.562744 
	C236.911133,234.293976 227.833420,228.034760 217.913528,223.705170 
	C187.933578,210.620285 156.752457,206.669189 124.844101,215.346893 
	C112.221451,218.779709 100.108162,224.085480 87.406616,228.296783 
	C86.018852,224.004227 84.987411,219.953369 83.955971,215.902496 
z"/>
<path fill="#4F65FF" opacity="1.000000" stroke="none" 
	d="
M389.048798,107.533546 
	C391.876343,106.211937 394.703918,104.890335 397.754669,103.314247 
	C399.771057,103.701813 401.936462,103.906448 403.293304,105.061188 
	C409.360565,110.224472 415.220123,115.633575 421.113251,120.999382 
	C447.581726,145.099304 485.244751,140.331497 508.205566,118.856857 
	C516.579834,111.024597 523.938477,102.110428 535.494141,98.807114 
	C539.380981,116.479904 532.647217,136.671631 519.726807,144.842102 
	C513.302429,146.508865 507.333008,147.751801 501.111145,148.696747 
	C498.191742,148.236145 495.258667,147.266724 492.901672,148.044098 
	C479.329163,152.520432 465.551178,152.951721 451.677643,150.480331 
	C446.784760,149.608734 441.490326,148.363144 437.486053,145.653000 
	C427.734039,139.052750 418.549469,131.597198 409.291534,124.289581 
	C402.417847,118.863976 395.787537,113.130104 389.048798,107.533546 
z"/>
<path fill="#B143FF" opacity="1.000000" stroke="none" 
	d="
M157.908508,295.429199 
	C159.437851,292.154663 160.900406,289.243317 163.005554,286.031738 
	C165.137878,286.133942 167.073334,286.072906 168.048294,287.010559 
	C177.723892,296.316162 187.309174,305.719513 196.723679,315.288361 
	C198.036682,316.622864 198.288773,319.001160 199.031952,320.896271 
	C199.019363,323.963562 199.006790,327.030823 198.990021,330.556030 
	C186.015198,320.470917 173.024643,309.952118 160.111786,299.338745 
	C159.080322,298.490936 158.585770,296.989868 157.908508,295.429199 
z"/>
<path fill="#7876FF" opacity="1.000000" stroke="none" 
	d="
M334.039215,175.980453 
	C329.850708,177.256561 325.662231,178.532669 321.118774,179.968781 
	C319.378632,179.680923 317.699738,179.589905 316.654205,178.729401 
	C307.315491,171.043091 298.067383,163.245697 288.885895,155.372177 
	C288.385071,154.942719 288.714996,153.544525 288.807190,152.342010 
	C292.669586,151.049301 296.382996,150.011841 300.865295,148.983231 
	C302.800873,149.539520 304.136047,149.879242 305.107574,150.667267 
	C312.824219,156.926514 320.527802,163.204880 328.105530,169.630539 
	C330.300201,171.491547 332.072998,173.850021 334.039215,175.980453 
z"/>
<path fill="#5B58FF" opacity="1.000000" stroke="none" 
	d="
M501.363586,148.994751 
	C507.333008,147.751801 513.302429,146.508865 519.552856,145.147064 
	C519.391968,146.377319 519.235596,147.922668 518.463928,149.044952 
	C511.321838,159.432312 504.131775,169.788406 496.781219,180.028381 
	C495.883331,181.279175 493.958771,181.792984 491.976562,182.499237 
	C488.699677,180.924164 485.956207,179.498184 482.710999,177.692886 
	C482.515350,176.119354 482.505493,174.697159 483.176971,173.766586 
	C489.170837,165.459991 495.284912,157.240158 501.363586,148.994751 
z"/>
<path fill="#8F5AFF" opacity="1.000000" stroke="none" 
	d="
M83.659431,216.088257 
	C84.987411,219.953369 86.018852,224.004227 87.048080,228.415268 
	C81.267509,235.084839 75.639381,241.544022 69.603912,247.597076 
	C68.116608,249.088715 65.303116,249.258011 63.099281,250.035187 
	C60.645023,249.128937 58.190765,248.222702 55.445381,247.182434 
	C62.890442,238.029709 70.578445,228.968781 78.409248,220.032959 
	C79.747581,218.505798 81.696205,217.513428 83.659431,216.088257 
z"/>
<path fill="#A169FF" opacity="1.000000" stroke="none" 
	d="
M247.014923,239.454559 
	C249.378433,236.446274 251.741928,233.437988 254.366486,230.278076 
	C262.923706,237.024139 271.237518,243.901138 279.456940,250.889114 
	C279.815979,251.194366 279.309937,252.517151 279.093323,253.697220 
	C275.948822,255.327118 272.917847,256.625763 269.278839,257.703217 
	C259.585236,253.715607 252.983887,246.964920 247.014923,239.454559 
z"/>
<path fill="#F8F8F9" opacity="1.000000" stroke="none" 
	d="
M679.674438,217.909943 
	C672.799438,218.431335 666.352661,219.205994 659.897095,219.288452 
	C653.769165,219.366745 647.631958,218.720551 641.261108,218.380219 
	C641.261108,194.731873 641.261108,171.503204 641.261108,147.793777 
	C656.670410,145.917770 672.063049,143.123703 687.482178,148.046478 
	C700.661682,152.254211 711.669678,166.999466 708.705383,184.357544 
	C708.147705,187.623154 707.685791,190.931183 706.784607,194.107544 
	C702.943298,207.646454 693.516785,215.022995 679.674438,217.909943 
z"/>
<path fill="#F8F8F9" opacity="1.000000" stroke="none" 
	d="
M1225.945801,237.275848 
	C1226.941650,245.050446 1229.055786,252.529144 1228.501465,259.804535 
	C1227.371216,274.637543 1225.681641,289.549561 1222.564453,304.073181 
	C1219.805786,316.926025 1209.353271,322.274231 1197.060303,324.564789 
	C1181.401001,327.482697 1161.749878,318.936737 1155.719482,305.166016 
	C1153.002563,298.961548 1151.548828,291.746307 1151.436523,284.958038 
	C1151.228394,272.368622 1151.765747,259.680054 1153.202637,247.171783 
	C1155.100464,230.651398 1171.756226,216.318130 1188.391235,216.101425 
	C1193.811401,216.030807 1199.402222,216.373276 1204.639771,217.652847 
	C1214.985352,220.180359 1222.015869,226.908966 1225.945801,237.275848 
z"/>
<path fill="#F5F6F6" opacity="1.000000" stroke="none" 
	d="
M1420.976074,211.808807 
	C1433.906372,217.243118 1439.613525,227.563721 1441.971558,240.259933 
	C1442.572021,243.493484 1442.776001,246.800674 1443.208862,250.471008 
	C1420.045166,250.471008 1397.359985,250.471008 1374.662476,250.471008 
	C1375.682251,225.893463 1394.511108,204.826004 1420.976074,211.808807 
z"/>
<path fill="#EEF0FF" opacity="1.000000" stroke="none" 
	d="
M501.111176,148.696777 
	C495.284912,157.240158 489.170837,165.459991 483.176971,173.766586 
	C482.505493,174.697159 482.515350,176.119354 482.380920,177.665405 
	C480.329559,178.515350 477.946442,178.655563 475.908173,179.566925 
	C455.507568,188.688675 434.211609,194.367432 411.855469,194.740509 
	C386.536407,195.163055 362.545135,189.055832 339.855225,177.814804 
	C338.264709,177.026810 336.493225,176.604126 334.422546,175.996002 
	C332.072998,173.850021 330.300201,171.491547 328.105530,169.630539 
	C320.527802,163.204880 312.824219,156.926514 305.107574,150.667267 
	C304.136047,149.879242 302.800873,149.539520 301.258789,149.006287 
	C295.663147,143.311829 290.930054,137.037979 285.111725,132.023209 
	C275.724670,123.932610 266.291870,115.519615 255.658585,109.342560 
	C241.407379,101.063812 225.511154,103.338135 210.005829,106.439384 
	C205.317612,107.377083 200.602997,108.182678 195.484024,108.536804 
	C195.046448,104.353050 195.025314,100.681267 195.004166,97.009491 
	C202.290970,90.746826 208.849640,83.192490 217.058334,78.565186 
	C226.258713,73.378853 236.281494,69.312950 247.066269,67.272141 
	C267.105896,63.480057 287.166077,61.139847 307.418213,64.206810 
	C335.666351,68.484680 359.962891,81.032990 380.576294,100.786896 
	C383.087311,103.193237 385.787903,105.401764 388.724731,107.617767 
	C395.787537,113.130104 402.417847,118.863976 409.291534,124.289581 
	C418.549469,131.597198 427.734039,139.052750 437.486053,145.653000 
	C441.490326,148.363144 446.784760,149.608734 451.677643,150.480331 
	C465.551178,152.951721 479.329163,152.520432 492.901672,148.044098 
	C495.258667,147.266724 498.191742,148.236145 501.111176,148.696777 
M374.863037,130.014954 
	C376.753937,129.913849 378.644867,129.812744 380.535767,129.711639 
	C380.715149,129.302246 380.894562,128.892853 381.073975,128.483475 
	C374.883423,122.892052 368.786346,117.192062 362.466309,111.751015 
	C358.829285,108.619804 355.858673,103.975204 350.289490,104.504906 
	C352.965912,102.772423 350.915436,101.747314 349.585602,101.051949 
	C339.928650,96.002312 330.611267,89.952805 320.436737,86.318703 
	C301.177856,79.439888 280.982025,80.327835 260.915985,82.113190 
	C256.467651,82.508980 252.060974,83.372910 247.635117,84.021286 
	C247.605026,84.393608 247.574936,84.765930 247.544846,85.138252 
	C264.359467,94.761703 281.174103,104.385155 298.102295,114.680222 
	C301.738403,118.276207 305.402771,121.844139 309.004150,125.474564 
	C314.789581,131.306641 321.065887,135.878662 329.980560,134.494003 
	C329.980560,134.494003 329.962097,134.940781 329.104980,134.970612 
	C326.878418,134.970612 324.651825,134.970612 320.953552,134.970612 
	C323.075806,137.261414 323.910797,138.464554 325.018890,139.309479 
	C331.877075,144.538788 338.868195,149.595657 345.674438,154.890656 
	C351.683838,159.565704 357.483734,164.550674 365.492004,162.551849 
	C363.209595,163.105713 360.927185,163.659576 357.869202,164.401657 
	C359.197449,165.339828 359.675385,165.787155 360.238068,166.059021 
	C380.542542,175.868729 401.885223,179.302017 424.135620,175.663086 
	C429.937286,174.714264 436.059509,173.389069 441.147644,168.112228 
	C433.133453,165.148621 425.895355,162.264374 418.515167,159.806778 
	C412.307312,157.739548 406.185059,154.628189 399.233246,156.907150 
	C398.373901,157.188873 397.146576,156.348083 396.895630,156.021042 
	C399.513062,155.488449 402.130463,154.955841 405.760437,154.217194 
	C399.534210,147.679108 394.111511,141.911179 388.603699,136.225754 
	C384.614868,132.108353 379.895294,129.855118 374.002258,130.558350 
	C374.011047,130.390244 374.019836,130.222153 374.863037,130.014954 
z"/>
<path fill="#C1D0FF" opacity="1.000000" stroke="none" 
	d="
M194.676270,97.112183 
	C195.025314,100.681267 195.046448,104.353050 195.071274,108.416824 
	C191.756088,106.739624 188.437225,104.670418 184.970917,102.281349 
	C187.998444,100.379288 191.173401,98.797081 194.676270,97.112183 
z"/>
<path fill="#F2EAFF" opacity="1.000000" stroke="none" 
	d="
M246.694412,239.562744 
	C252.983887,246.964920 259.585236,253.715607 268.919922,257.745178 
	C270.485809,260.019409 271.589294,262.216370 273.153778,264.011658 
	C283.797455,276.225800 295.278656,287.428925 310.108337,294.638641 
	C331.726074,305.148621 353.106079,303.091064 374.413879,293.723236 
	C376.684113,292.725159 378.984131,291.794861 381.636780,290.918060 
	C382.003235,291.002991 381.992218,290.993866 381.992218,290.993866 
	C380.128326,295.389038 378.195160,299.756714 376.436981,304.193787 
	C375.794617,305.814972 375.567932,307.600830 375.344086,309.671814 
	C373.969238,310.879425 372.241241,311.521576 370.858368,312.604431 
	C344.153259,333.516205 313.853363,343.863678 279.947662,344.128723 
	C251.855164,344.348328 226.209625,337.082336 203.371017,320.434998 
	C202.554001,319.839478 200.853592,320.455902 199.298431,320.701874 
	C198.288773,319.001160 198.036682,316.622864 196.723679,315.288361 
	C187.309174,305.719513 177.723892,296.316162 168.048294,287.010559 
	C167.073334,286.072906 165.137878,286.133942 163.316849,285.869202 
	C162.502975,284.350616 162.488129,282.296448 161.468048,281.097534 
	C144.746017,261.444183 123.808632,251.161011 97.692665,254.197311 
	C90.762558,255.003021 84.132614,258.355499 77.351959,260.497803 
	C74.354446,261.444855 71.370483,262.572968 68.291748,263.070404 
	C66.579750,263.347046 64.119156,263.053192 63.055309,261.973083 
	C62.227619,261.132721 63.063122,258.680023 63.113281,256.942596 
	C63.173382,254.860901 67.203674,252.918427 63.218781,250.367386 
	C65.303116,249.258011 68.116608,249.088715 69.603912,247.597076 
	C75.639381,241.544022 81.267509,235.084839 87.404411,228.656952 
	C100.108162,224.085480 112.221451,218.779709 124.844101,215.346893 
	C156.752457,206.669189 187.933578,210.620285 217.913528,223.705170 
	C227.833420,228.034760 236.911133,234.293976 246.694412,239.562744 
M232.570267,264.395233 
	C235.256683,264.122375 237.943100,263.849518 242.116913,263.425598 
	C238.417267,260.230743 235.976944,257.591583 233.050293,255.708054 
	C227.168976,251.923004 221.022385,248.550171 214.689499,244.356384 
	C186.276810,233.221008 157.688309,223.620987 126.551575,234.491058 
	C127.789268,235.359238 128.915253,236.289154 130.164566,237.003311 
	C140.542099,242.935577 150.876633,248.949097 161.378113,254.654709 
	C164.322784,256.254578 167.779068,256.912781 170.640640,258.481659 
	C169.951675,258.832520 169.262695,259.183380 168.556015,259.543213 
	C172.889374,265.649567 178.215668,269.282104 185.426407,268.612061 
	C183.534317,268.851135 181.642242,269.090240 178.336655,269.507935 
	C184.698593,275.105652 190.193893,280.002930 195.792313,284.779297 
	C196.413635,285.309387 197.624146,285.293823 198.559174,285.285339 
	C202.030777,285.253906 205.501434,285.119598 208.426758,285.589478 
	C205.241776,286.016113 202.056778,286.442719 197.236664,287.088348 
	C206.768494,293.945587 215.150772,299.744568 223.259018,305.904327 
	C227.449677,309.087921 231.799026,310.765381 236.600861,310.506195 
	C235.267349,310.971283 233.933838,311.436340 232.065735,312.087860 
	C244.244034,320.920868 257.686432,324.451965 271.631958,324.773376 
	C285.834778,325.100647 300.079987,323.684692 314.300598,322.920258 
	C315.196350,322.872131 316.649628,321.960663 316.769684,321.265411 
	C316.965973,320.128510 316.615234,318.544769 315.871979,317.694031 
	C315.079010,316.786316 313.598785,316.407776 312.357086,315.974274 
	C299.926697,311.634888 287.483612,307.331848 275.769287,302.988983 
	C279.031708,302.512146 278.074829,300.837677 276.704773,299.301270 
	C270.245087,292.057434 263.791168,284.805664 257.158630,277.721985 
	C256.201691,276.700012 254.286224,276.575531 253.122406,275.489716 
	C252.899231,274.649048 252.887726,273.660767 252.420319,272.990356 
	C247.421356,265.820282 240.337418,263.847412 232.570267,264.395233 
z"/>
<path fill="#F2EAFF" opacity="1.000000" stroke="none" 
	d="
M382.010559,291.009857 
	C382.087036,290.803192 382.156189,290.589661 382.225342,290.376160 
	C382.271210,290.541473 382.317078,290.706757 382.177551,290.932983 
	C381.992218,290.993866 382.003235,291.002991 382.010559,291.009857 
z"/>
<path fill="#9FC4FF" opacity="1.000000" stroke="none" 
	d="
M297.988708,114.008606 
	C281.174103,104.385155 264.359467,94.761703 247.544846,85.138252 
	C247.574936,84.765930 247.605026,84.393608 247.635117,84.021286 
	C252.060974,83.372910 256.467651,82.508980 260.915985,82.113190 
	C280.982025,80.327835 301.177856,79.439888 320.436737,86.318703 
	C330.611267,89.952805 339.928650,96.002312 349.585602,101.051949 
	C350.915436,101.747314 352.965912,102.772423 349.745026,104.797279 
	C341.742828,106.913437 334.359192,109.176849 326.808655,110.450195 
	C317.273163,112.058304 307.601593,112.859398 297.988708,114.008606 
z"/>
<path fill="#C0B9FF" opacity="1.000000" stroke="none" 
	d="
M365.979523,162.006622 
	C357.483734,164.550674 351.683838,159.565704 345.674438,154.890656 
	C338.868195,149.595657 331.877075,144.538788 325.018890,139.309479 
	C323.910797,138.464554 323.075806,137.261414 320.953552,134.970612 
	C324.651825,134.970612 326.878418,134.970612 329.963806,134.976837 
	C335.570862,134.316040 340.319122,133.649033 345.281250,132.984894 
	C345.495178,132.987762 345.922607,133.005814 346.396393,133.002625 
	C355.910065,132.354446 364.949921,131.709442 373.989807,131.064423 
	C379.895294,129.855118 384.614868,132.108353 388.603699,136.225754 
	C394.111511,141.911179 399.534210,147.679108 405.760437,154.217194 
	C402.130463,154.955841 399.513062,155.488449 396.162842,156.142426 
	C394.374573,156.756638 393.363922,157.511429 392.256592,157.700790 
	C383.507965,159.196884 374.740906,160.585175 365.979523,162.006622 
z"/>
<path fill="#ADBDFF" opacity="1.000000" stroke="none" 
	d="
M345.922607,133.005814 
	C345.922607,133.005814 345.495178,132.987762 344.810852,132.989059 
	C339.408813,133.342545 334.691071,133.694733 329.973328,134.046906 
	C321.065887,135.878662 314.789581,131.306641 309.004150,125.474564 
	C305.402771,121.844139 301.738403,118.276207 298.045502,114.344414 
	C307.601593,112.859398 317.273163,112.058304 326.808655,110.450195 
	C334.359192,109.176849 341.742828,106.913437 349.562378,105.056534 
	C355.858673,103.975204 358.829285,108.619804 362.466309,111.751015 
	C368.786346,117.192062 374.883423,122.892052 381.073975,128.483475 
	C380.894562,128.892853 380.715149,129.302246 380.535767,129.711639 
	C378.644867,129.812744 376.753937,129.913849 374.010071,130.011627 
	C368.734283,130.357681 364.299377,130.598145 359.891876,131.086227 
	C355.221863,131.603409 350.577942,132.356033 345.922607,133.005814 
z"/>
<path fill="#D4BBFF" opacity="1.000000" stroke="none" 
	d="
M365.735779,162.279236 
	C374.740906,160.585175 383.507965,159.196884 392.256592,157.700790 
	C393.363922,157.511429 394.374573,156.756638 395.759888,156.145630 
	C397.146576,156.348083 398.373901,157.188873 399.233246,156.907150 
	C406.185059,154.628189 412.307312,157.739548 418.515167,159.806778 
	C425.895355,162.264374 433.133453,165.148621 441.147644,168.112228 
	C436.059509,173.389069 429.937286,174.714264 424.135620,175.663086 
	C401.885223,179.302017 380.542542,175.868729 360.238068,166.059021 
	C359.675385,165.787155 359.197449,165.339828 357.869202,164.401657 
	C360.927185,163.659576 363.209595,163.105713 365.735779,162.279236 
z"/>
<path fill="#D9DBFF" opacity="1.000000" stroke="none" 
	d="
M346.396393,133.002625 
	C350.577942,132.356033 355.221863,131.603409 359.891876,131.086227 
	C364.299377,130.598145 368.734283,130.357681 373.592896,130.031174 
	C374.019836,130.222153 374.011047,130.390244 373.996033,130.811386 
	C364.949921,131.709442 355.910065,132.354446 346.396393,133.002625 
z"/>
<path fill="#D9DBFF" opacity="1.000000" stroke="none" 
	d="
M329.976929,134.270447 
	C334.691071,133.694733 339.408813,133.342545 344.596954,132.986191 
	C340.319122,133.649033 335.570862,134.316040 330.392365,134.961914 
	C329.962097,134.940781 329.980560,134.494003 329.976929,134.270447 
z"/>
<path fill="#BDB8FF" opacity="1.000000" stroke="none" 
	d="
M237.025589,309.966278 
	C231.799026,310.765381 227.449677,309.087921 223.259018,305.904327 
	C215.150772,299.744568 206.768494,293.945587 197.236664,287.088348 
	C202.056778,286.442719 205.241776,286.016113 209.082855,285.134552 
	C210.694672,284.454712 211.642776,284.075562 212.607239,284.028076 
	C226.406738,283.347931 240.365753,283.506317 252.814331,276.035706 
	C254.286224,276.575531 256.201691,276.700012 257.158630,277.721985 
	C263.791168,284.805664 270.245087,292.057434 276.704773,299.301270 
	C278.074829,300.837677 279.031708,302.512146 275.097595,303.120789 
	C269.803894,304.166290 265.195343,305.155884 260.556915,305.976654 
	C252.723083,307.362793 244.870361,308.642059 237.025589,309.966278 
z"/>
<path fill="#98C1FF" opacity="1.000000" stroke="none" 
	d="
M171.000687,258.002930 
	C167.779068,256.912781 164.322784,256.254578 161.378113,254.654709 
	C150.876633,248.949097 140.542099,242.935577 130.164566,237.003311 
	C128.915253,236.289154 127.789268,235.359238 126.551575,234.491058 
	C157.688309,223.620987 186.276810,233.221008 214.851410,244.678986 
	C215.013306,245.001602 215.015137,244.972397 214.781982,245.082306 
	C214.353775,245.469574 214.158737,245.746918 213.986191,246.016464 
	C214.008682,246.008667 214.025253,245.964035 213.774887,246.086639 
	C213.273865,246.485260 213.023209,246.761276 212.489639,247.201172 
	C208.341293,249.456024 204.691315,252.554001 200.567261,253.436432 
	C190.831772,255.519547 180.870590,256.547974 171.000687,258.002930 
z"/>
<path fill="#D2BBFF" opacity="1.000000" stroke="none" 
	d="
M236.813232,310.236237 
	C244.870361,308.642059 252.723083,307.362793 260.556915,305.976654 
	C265.195343,305.155884 269.803894,304.166290 274.734985,303.135590 
	C287.483612,307.331848 299.926697,311.634888 312.357086,315.974274 
	C313.598785,316.407776 315.079010,316.786316 315.871979,317.694031 
	C316.615234,318.544769 316.965973,320.128510 316.769684,321.265411 
	C316.649628,321.960663 315.196350,322.872131 314.300598,322.920258 
	C300.079987,323.684692 285.834778,325.100647 271.631958,324.773376 
	C257.686432,324.451965 244.244034,320.920868 232.065735,312.087860 
	C233.933838,311.436340 235.267349,310.971283 236.813232,310.236237 
z"/>
<path fill="#AFBBFF" opacity="1.000000" stroke="none" 
	d="
M252.968369,275.762695 
	C240.365753,283.506317 226.406738,283.347931 212.607239,284.028076 
	C211.642776,284.075562 210.694672,284.454712 209.355713,284.851776 
	C205.501434,285.119598 202.030777,285.253906 198.559174,285.285339 
	C197.624146,285.293823 196.413635,285.309387 195.792313,284.779297 
	C190.193893,280.002930 184.698593,275.105652 178.336655,269.507935 
	C181.642242,269.090240 183.534317,268.851135 186.137543,268.313477 
	C201.915787,267.006165 216.982910,265.997467 232.050034,264.988770 
	C240.337418,263.847412 247.421356,265.820282 252.420319,272.990356 
	C252.887726,273.660767 252.899231,274.649048 252.968369,275.762695 
z"/>
<path fill="#A7C2FF" opacity="1.000000" stroke="none" 
	d="
M232.310150,264.692017 
	C216.982910,265.997467 201.915787,267.006165 186.371124,268.032654 
	C178.215668,269.282104 172.889374,265.649567 168.556015,259.543213 
	C169.262695,259.183380 169.951675,258.832520 170.820663,258.242310 
	C180.870590,256.547974 190.831772,255.519547 200.567261,253.436432 
	C204.691315,252.554001 208.341293,249.456024 212.769791,247.110016 
	C213.563660,246.558014 213.794464,246.261032 214.025269,245.964050 
	C214.025253,245.964035 214.008682,246.008667 214.234985,245.924042 
	C214.645905,245.550400 214.830521,245.261398 215.015137,244.972397 
	C215.015137,244.972397 215.013306,245.001602 214.999283,245.004410 
	C221.022385,248.550171 227.168976,251.923004 233.050293,255.708054 
	C235.976944,257.591583 238.417267,260.230743 242.116913,263.425598 
	C237.943100,263.849518 235.256683,264.122375 232.310150,264.692017 
z"/>
<path fill="#F2EAFF" opacity="1.000000" stroke="none" 
	d="
M213.774902,246.086639 
	C213.794464,246.261032 213.563660,246.558014 213.052704,246.946167 
	C213.023209,246.761276 213.273865,246.485260 213.774902,246.086639 
z"/>
<path fill="#F2EAFF" opacity="1.000000" stroke="none" 
	d="
M214.781982,245.082306 
	C214.830521,245.261398 214.645905,245.550400 214.212494,245.931824 
	C214.158737,245.746918 214.353775,245.469574 214.781982,245.082306 
z"/>
</svg>